<?xml version="1.0" encoding="UTF-8"?>
<svg width="700pt" height="700pt" version="1.1" viewBox="0 0 700 700" xmlns="http://www.w3.org/2000/svg" xmlns:xlink="http://www.w3.org/1999/xlink">
 <defs>
  <symbol id="u" overflow="visible">
   <path d="m3.7812-0.21875c-0.19922 0.09375-0.40234 0.16797-0.60938 0.21875-0.21094 0.050781-0.42969 0.078125-0.65625 0.078125-0.6875 0-1.2344-0.1875-1.6406-0.5625-0.39844-0.38281-0.59375-0.90625-0.59375-1.5625s0.19531-1.1758 0.59375-1.5625c0.40625-0.38281 0.95312-0.57812 1.6406-0.57812 0.22656 0 0.44531 0.027344 0.65625 0.078125 0.20703 0.054687 0.41016 0.13281 0.60938 0.23438v0.84375c-0.19922-0.13281-0.39844-0.23438-0.59375-0.29688-0.1875-0.0625-0.38672-0.09375-0.59375-0.09375-0.375 0-0.67188 0.125-0.89062 0.375-0.21875 0.24219-0.32812 0.57422-0.32812 1 0 0.41797 0.10938 0.75 0.32812 1 0.21875 0.24219 0.51562 0.35938 0.89062 0.35938 0.20703 0 0.40625-0.03125 0.59375-0.09375 0.19531-0.0625 0.39453-0.16016 0.59375-0.29688z"/>
  </symbol>
  <symbol id="c" overflow="visible">
   <path d="m2.7656-2.25c-0.085937-0.039062-0.17188-0.066406-0.26562-0.078125-0.085938-0.019531-0.16797-0.03125-0.25-0.03125-0.25 0-0.44922 0.085937-0.59375 0.25-0.13672 0.15625-0.20312 0.38672-0.20312 0.6875v1.4219h-0.98438v-3.0781h0.98438v0.5c0.13281-0.19531 0.28125-0.34375 0.4375-0.4375 0.16406-0.09375 0.36328-0.14062 0.59375-0.14062h0.10938c0.039062 0 0.097656 0.007812 0.17188 0.015625z"/>
  </symbol>
  <symbol id="a" overflow="visible">
   <path d="m3.5469-1.5469v0.28125h-2.2969c0.019531 0.23047 0.10156 0.40234 0.25 0.51562 0.14453 0.11719 0.34375 0.17188 0.59375 0.17188 0.20703 0 0.42188-0.03125 0.64062-0.09375s0.44141-0.15625 0.67188-0.28125v0.76562c-0.23047 0.085938-0.46484 0.14844-0.70312 0.1875-0.23047 0.050781-0.46094 0.078125-0.6875 0.078125-0.5625 0-1-0.14062-1.3125-0.42188-0.30469-0.28125-0.45312-0.67969-0.45312-1.2031 0-0.5 0.14844-0.89062 0.45312-1.1719 0.30078-0.28906 0.71875-0.4375 1.25-0.4375 0.48828 0 0.875 0.14844 1.1562 0.4375 0.28906 0.29297 0.4375 0.68359 0.4375 1.1719zm-1-0.32812c0-0.1875-0.058594-0.33594-0.17188-0.45312-0.10547-0.11328-0.24609-0.17188-0.42188-0.17188-0.19922 0-0.35938 0.054688-0.48438 0.15625-0.11719 0.10547-0.18359 0.26172-0.20312 0.46875z"/>
  </symbol>
  <symbol id="f" overflow="visible">
   <path d="m1.8594-1.3906c-0.21094 0-0.36719 0.039063-0.46875 0.10938-0.10547 0.074219-0.15625 0.17969-0.15625 0.3125 0 0.125 0.039063 0.22656 0.125 0.29688 0.082031 0.0625 0.19531 0.09375 0.34375 0.09375 0.1875 0 0.34375-0.0625 0.46875-0.1875 0.13281-0.13281 0.20312-0.30469 0.20312-0.51562v-0.10938zm1.5-0.375v1.7656h-0.98438v-0.45312c-0.13672 0.1875-0.28906 0.32422-0.45312 0.40625-0.16797 0.082031-0.37109 0.125-0.60938 0.125-0.3125 0-0.57031-0.09375-0.76562-0.28125-0.19922-0.1875-0.29688-0.42578-0.29688-0.71875 0-0.36328 0.11719-0.62891 0.35938-0.79688 0.25-0.16406 0.64062-0.25 1.1719-0.25h0.59375v-0.078125c0-0.15625-0.0625-0.26953-0.1875-0.34375-0.125-0.070313-0.32031-0.10938-0.57812-0.10938-0.21094 0-0.40625 0.023438-0.59375 0.0625-0.17969 0.042969-0.34375 0.10547-0.5 0.1875v-0.75c0.20703-0.050781 0.41406-0.085938 0.625-0.10938 0.21875-0.03125 0.42969-0.046875 0.64062-0.046875 0.5625 0 0.96094 0.10938 1.2031 0.32812 0.25 0.21875 0.375 0.57422 0.375 1.0625z"/>
  </symbol>
  <symbol id="b" overflow="visible">
   <path d="m1.5469-3.9531v0.875h1.0156v0.70312h-1.0156v1.2969c0 0.14844 0.023437 0.24609 0.078125 0.29688 0.0625 0.054688 0.17578 0.078125 0.34375 0.078125h0.51562v0.70312h-0.84375c-0.39844 0-0.67969-0.078125-0.84375-0.23438-0.15625-0.16406-0.23438-0.44531-0.23438-0.84375v-1.2969h-0.48438v-0.70312h0.48438v-0.875z"/>
  </symbol>
  <symbol id="k" overflow="visible">
   <path d="m2.5781-2.6406v-1.6406h0.98438v4.2812h-0.98438v-0.45312c-0.13672 0.1875-0.28906 0.32422-0.45312 0.40625-0.16797 0.082031-0.35547 0.125-0.5625 0.125-0.38672 0-0.70312-0.14844-0.95312-0.45312-0.24219-0.30078-0.35938-0.69141-0.35938-1.1719 0-0.46875 0.11719-0.85156 0.35938-1.1562 0.25-0.30078 0.56641-0.45312 0.95312-0.45312 0.20703 0 0.39453 0.042969 0.5625 0.125 0.16406 0.085938 0.31641 0.21484 0.45312 0.39062zm-0.65625 2c0.20703 0 0.36719-0.070313 0.48438-0.21875 0.11328-0.15625 0.17188-0.38281 0.17188-0.6875 0-0.28906-0.058594-0.50781-0.17188-0.65625-0.11719-0.15625-0.27734-0.23438-0.48438-0.23438-0.21094 0-0.37109 0.078125-0.48438 0.23438-0.10547 0.14844-0.15625 0.36719-0.15625 0.65625 0 0.30469 0.050781 0.53125 0.15625 0.6875 0.11328 0.14844 0.27344 0.21875 0.48438 0.21875z"/>
  </symbol>
  <symbol id="j" overflow="visible">
   <path d="m2.1094-0.64062c0.21875 0 0.37891-0.070313 0.48438-0.21875 0.11328-0.15625 0.17188-0.38281 0.17188-0.6875 0-0.28906-0.058594-0.50781-0.17188-0.65625-0.10547-0.15625-0.26562-0.23438-0.48438-0.23438-0.21094 0-0.37109 0.078125-0.48438 0.23438-0.11719 0.14844-0.17188 0.36719-0.17188 0.65625 0 0.29297 0.054687 0.51562 0.17188 0.67188 0.11328 0.15625 0.27344 0.23438 0.48438 0.23438zm-0.65625-2c0.13281-0.17578 0.28516-0.30469 0.45312-0.39062 0.16406-0.082031 0.35938-0.125 0.57812-0.125 0.375 0 0.67969 0.15234 0.92188 0.45312 0.25 0.30469 0.375 0.6875 0.375 1.1562 0 0.48047-0.125 0.87109-0.375 1.1719-0.24219 0.30469-0.54688 0.45312-0.92188 0.45312-0.21875 0-0.41406-0.042969-0.57812-0.125-0.16797-0.082031-0.32031-0.21875-0.45312-0.40625v0.45312h-0.98438v-4.2812h0.98438z"/>
  </symbol>
  <symbol id="e" overflow="visible">
   <path d="m0.0625-3.0781h1l0.82812 2.0938 0.70312-2.0938h0.98438l-1.2969 3.375c-0.13672 0.34375-0.29297 0.58203-0.46875 0.71875-0.16797 0.13281-0.39062 0.20312-0.67188 0.20312h-0.57812v-0.65625h0.3125c0.16406 0 0.28516-0.027344 0.35938-0.078125 0.082031-0.054687 0.14453-0.14844 0.1875-0.28125l0.015625-0.078125z"/>
  </symbol>
  <symbol id="i" overflow="visible">
   <path d="m0.51562-4.1094h2.8594v0.79688h-1.7969v0.76562h1.6875v0.79688h-1.6875v0.95312h1.8594v0.79688h-2.9219z"/>
  </symbol>
  <symbol id="h" overflow="visible">
   <path d="m0.4375-1.2031v-1.875h1v0.29688c0 0.16797-0.007812 0.38281-0.015625 0.64062v0.5c0 0.25 0.003906 0.43359 0.015625 0.54688 0.019531 0.10547 0.046875 0.17969 0.078125 0.21875 0.039063 0.074219 0.09375 0.125 0.15625 0.15625s0.13281 0.046875 0.21875 0.046875c0.20703 0 0.36719-0.078125 0.48438-0.23438 0.125-0.15625 0.1875-0.375 0.1875-0.65625v-1.5156h0.98438v3.0781h-0.98438v-0.45312c-0.15625 0.1875-0.32031 0.32422-0.48438 0.40625-0.16797 0.082031-0.35156 0.125-0.54688 0.125-0.35547 0-0.625-0.10938-0.8125-0.32812s-0.28125-0.53516-0.28125-0.95312z"/>
  </symbol>
  <symbol id="g" overflow="visible">
   <path d="m2.9688-2.9844v0.79688c-0.13672-0.09375-0.27344-0.16016-0.40625-0.20312-0.13672-0.039063-0.27734-0.0625-0.42188-0.0625-0.27344 0-0.48438 0.085937-0.64062 0.25-0.15625 0.15625-0.23438 0.375-0.23438 0.65625 0 0.29297 0.078125 0.52344 0.23438 0.6875 0.15625 0.15625 0.36719 0.23438 0.64062 0.23438 0.15625 0 0.30078-0.019531 0.4375-0.0625 0.14453-0.050781 0.27344-0.11719 0.39062-0.20312v0.79688c-0.15625 0.0625-0.3125 0.10156-0.46875 0.125-0.15625 0.03125-0.32031 0.046875-0.48438 0.046875-0.55469 0-0.98438-0.14062-1.2969-0.42188-0.3125-0.28906-0.46875-0.69141-0.46875-1.2031 0-0.5 0.15625-0.89062 0.46875-1.1719 0.3125-0.28906 0.74219-0.4375 1.2969-0.4375 0.16406 0 0.32812 0.015625 0.48438 0.046875 0.15625 0.023437 0.3125 0.0625 0.46875 0.125z"/>
  </symbol>
  <symbol id="t" overflow="visible">
   <path d="m0.46875-4.2812h0.98438v4.2812h-0.98438z"/>
  </symbol>
  <symbol id="s" overflow="visible">
   <path d="m1.4531-0.45312v1.625h-0.98438v-4.25h0.98438v0.4375c0.13281-0.17578 0.28516-0.30469 0.45312-0.39062 0.16406-0.082031 0.35938-0.125 0.57812-0.125 0.375 0 0.67969 0.15234 0.92188 0.45312 0.25 0.30469 0.375 0.6875 0.375 1.1562 0 0.48047-0.125 0.87109-0.375 1.1719-0.24219 0.30469-0.54688 0.45312-0.92188 0.45312-0.21875 0-0.41406-0.042969-0.57812-0.125-0.16797-0.082031-0.32031-0.21875-0.45312-0.40625zm0.65625-1.9844c-0.21094 0-0.37109 0.078125-0.48438 0.23438-0.11719 0.14844-0.17188 0.36719-0.17188 0.65625 0 0.29297 0.054687 0.51562 0.17188 0.67188 0.11328 0.15625 0.27344 0.23438 0.48438 0.23438 0.21875 0 0.37891-0.070313 0.48438-0.21875 0.11328-0.15625 0.17188-0.38281 0.17188-0.6875 0-0.28906-0.058594-0.50781-0.17188-0.65625-0.10547-0.15625-0.26562-0.23438-0.48438-0.23438z"/>
  </symbol>
  <symbol id="r" overflow="visible">
   <path d="m2.5-4.2812v0.64062h-0.54688c-0.13672 0-0.23438 0.027344-0.29688 0.078125-0.054688 0.054688-0.078125 0.14062-0.078125 0.26562v0.21875h0.84375v0.70312h-0.84375v2.375h-0.98438v-2.375h-0.48438v-0.70312h0.48438v-0.21875c0-0.33203 0.09375-0.57812 0.28125-0.73438 0.1875-0.16406 0.47656-0.25 0.875-0.25z"/>
  </symbol>
  <symbol id="d" overflow="visible">
   <path d="m1.9375-2.4531c-0.21875 0-0.38672 0.078125-0.5 0.23438-0.11719 0.15625-0.17188 0.38281-0.17188 0.67188 0 0.30469 0.054687 0.53125 0.17188 0.6875 0.11328 0.15625 0.28125 0.23438 0.5 0.23438s0.38281-0.078125 0.5-0.23438c0.11328-0.15625 0.17188-0.38281 0.17188-0.6875 0-0.28906-0.058594-0.51562-0.17188-0.67188-0.11719-0.15625-0.28125-0.23438-0.5-0.23438zm0-0.70312c0.53125 0 0.94141 0.14844 1.2344 0.4375 0.30078 0.28125 0.45312 0.67188 0.45312 1.1719 0 0.51172-0.15234 0.91406-0.45312 1.2031-0.29297 0.28125-0.70312 0.42188-1.2344 0.42188s-0.94922-0.14062-1.25-0.42188c-0.29297-0.28906-0.4375-0.69141-0.4375-1.2031 0-0.5 0.14453-0.89062 0.4375-1.1719 0.30078-0.28906 0.71875-0.4375 1.25-0.4375z"/>
  </symbol>
  <symbol id="q" overflow="visible">
   <path d="m3.3281-2.5781c0.125-0.1875 0.26953-0.32812 0.4375-0.42188 0.17578-0.10156 0.36719-0.15625 0.57812-0.15625 0.35156 0 0.625 0.10938 0.8125 0.32812s0.28125 0.53906 0.28125 0.95312v1.875h-1v-1.6094-0.0625-0.125c0-0.21875-0.03125-0.375-0.09375-0.46875-0.0625-0.10156-0.16797-0.15625-0.3125-0.15625-0.1875 0-0.33594 0.078125-0.4375 0.23438-0.09375 0.15625-0.14062 0.38281-0.14062 0.67188v1.5156h-1v-1.6094c0-0.34375-0.03125-0.5625-0.09375-0.65625-0.054687-0.10156-0.15625-0.15625-0.3125-0.15625-0.1875 0-0.33594 0.078125-0.4375 0.23438-0.10547 0.15625-0.15625 0.38281-0.15625 0.67188v1.5156h-0.98438v-3.0781h0.98438v0.4375c0.125-0.16406 0.26562-0.28906 0.42188-0.375 0.15625-0.09375 0.32812-0.14062 0.51562-0.14062 0.21875 0 0.40625 0.054688 0.5625 0.15625 0.16406 0.10547 0.28906 0.24609 0.375 0.42188z"/>
  </symbol>
  <symbol id="p" overflow="visible">
   <path d="m3.5781-1.875v1.875h-1v-1.4375c0-0.26953-0.007813-0.45312-0.015625-0.54688-0.011719-0.10156-0.03125-0.17969-0.0625-0.23438-0.03125-0.0625-0.085938-0.10938-0.15625-0.14062-0.0625-0.039063-0.13672-0.0625-0.21875-0.0625-0.21094 0-0.375 0.085937-0.5 0.25-0.11719 0.15625-0.17188 0.375-0.17188 0.65625v1.5156h-0.98438v-4.2812h0.98438v1.6406c0.15625-0.17578 0.31641-0.30469 0.48438-0.39062 0.16406-0.082031 0.34766-0.125 0.54688-0.125 0.35156 0 0.625 0.10938 0.8125 0.32812s0.28125 0.53906 0.28125 0.95312z"/>
  </symbol>
  <symbol id="o" overflow="visible">
   <path d="m0.51562-4.1094h1.1875l1.5 2.8125v-2.8125h1v4.1094h-1.1875l-1.5-2.8281v2.8281h-1z"/>
  </symbol>
  <symbol id="n" overflow="visible">
   <path d="m3.5781-1.875v1.875h-1v-1.4375c0-0.26953-0.007813-0.45312-0.015625-0.54688-0.011719-0.10156-0.03125-0.17969-0.0625-0.23438-0.03125-0.0625-0.085938-0.10938-0.15625-0.14062-0.0625-0.039063-0.13672-0.0625-0.21875-0.0625-0.21094 0-0.375 0.085937-0.5 0.25-0.11719 0.15625-0.17188 0.375-0.17188 0.65625v1.5156h-0.98438v-3.0781h0.98438v0.4375c0.15625-0.17578 0.31641-0.30469 0.48438-0.39062 0.16406-0.082031 0.34766-0.125 0.54688-0.125 0.35156 0 0.625 0.10938 0.8125 0.32812s0.28125 0.53906 0.28125 0.95312z"/>
  </symbol>
  <symbol id="m" overflow="visible">
   <path d="m0.51562-4.1094h1.7656c0.51953 0 0.92188 0.11719 1.2031 0.34375 0.28125 0.23047 0.42188 0.5625 0.42188 1 0 0.42969-0.14062 0.76172-0.42188 1-0.28125 0.23047-0.68359 0.34375-1.2031 0.34375h-0.70312v1.4219h-1.0625zm1.0625 0.76562v1.1562h0.59375c0.19531 0 0.35156-0.050781 0.46875-0.15625 0.11328-0.10156 0.17188-0.24219 0.17188-0.42188 0-0.1875-0.058594-0.32812-0.17188-0.42188-0.11719-0.10156-0.27344-0.15625-0.46875-0.15625z"/>
  </symbol>
  <symbol id="l" overflow="visible">
   <path d="m0.46875-3.0781h0.98438v3.0156c0 0.41406-0.10156 0.73438-0.29688 0.95312-0.19922 0.21875-0.48438 0.32812-0.85938 0.32812h-0.48438v-0.65625h0.17188c0.1875 0 0.3125-0.042969 0.375-0.125 0.070313-0.085938 0.10938-0.25 0.10938-0.5zm0-1.2031h0.98438v0.79688h-0.98438z"/>
  </symbol>
 </defs>
 <g>
  <path d="m343.43 325.42-56.656-8.0938v-1.1992h18.066c27.945 0 51.02-21.262 53.891-48.461l9.7891-4.8945c16.434-8.2148 26.641-24.734 26.641-43.105 0-16.152-8.0234-31.141-21.461-40.102l-5.6328-3.7539v-31.297c0-69.727-56.727-126.45-126.45-126.45-69.727 0.003906-126.45 56.727-126.45 126.45v31.297l-5.6367 3.7578c-13.438 8.957-21.457 23.949-21.457 40.098 0 18.371 10.207 34.887 26.641 43.105l9.7891 4.8945c2.8711 27.199 25.945 48.461 53.891 48.461h18.066v1.1992l-56.656 8.0938c-19.367 2.7656-37.094 12.434-49.914 27.211-12.824 14.781-19.883 33.695-19.883 53.262v54.75c0 34.863 28.363 63.227 63.227 63.227h45.16v9.0312c0 14.941 12.156 27.098 27.098 27.098h72.258c14.941 0 27.098-12.156 27.098-27.098v-9.0312h45.16c34.863 0 63.227-28.363 63.227-63.227v-54.75c0-19.566-7.0586-38.48-19.879-53.262-12.82-14.781-30.547-24.445-49.918-27.211zm-137.68-37.73-5.6953-3.418c-18.934-11.363-30.695-32.137-30.695-54.219v-75.043c0-10.547 5.3789-20.121 13.93-25.664l21.078 42.16 10.855-16.281c6.1719-9.2539 14.344-16.984 23.863-22.637 4.7188 5.3086 9.0898 10.957 13.078 16.938l5.0117 7.5156 29.297-19.531 27.402 20.555v71.992c0 22.082-11.762 42.855-30.695 54.219l-5.6914 3.4141c-5.4102 3.2461-8.7734 9.1797-8.7734 15.492v18.242l-27.098 27.098-27.098-27.098v-18.242c0-6.3164-3.3594-12.25-8.7695-15.492zm126.19-88.98v-36.129c9.9609 0 18.066 8.1055 18.066 18.066 0 9.957-8.1055 18.062-18.066 18.062zm45.164 20.957c0 11.484-6.3828 21.812-16.656 26.949l-19.473 9.7383v5.5781c0 19.922-16.207 36.129-36.129 36.129h-9.6758c22.758-14.918 36.77-40.68 36.77-68.008v-13.281c14.648 0 27.277-8.7656 32.941-21.32 7.6758 5.668 12.223 14.609 12.223 24.215zm-135.48-183.54c59.766 0 108.39 48.621 108.39 108.39v4.8594c-5.3203-3.0859-11.484-4.8594-18.066-4.8594v-16.598c0-20.977-13.371-39.531-33.273-46.164l-5.7148 17.141c12.512 4.1719 20.922 15.836 20.922 29.023l0.003906 7.5664-26.789-20.094-25.094 16.727c-11.746-15.781-25.996-29.305-42.461-40.281l-10.02 15.031c5.8008 3.8672 11.289 8.0977 16.461 12.656-7.0703 4.6953-13.484 10.32-19.016 16.762l-14.957-29.914-7.4336 2.4766c-16.5 5.5-28.5 19.195-32.125 35.668h-1.1484c-6.5781 0-12.746 1.7773-18.066 4.8594l0.003906-4.8594c0-59.766 48.621-108.39 108.39-108.39zm-90.324 162.58c-9.9609 0-18.066-8.1055-18.066-18.066 0-9.9609 8.1055-18.066 18.066-18.066zm-9.0312 63.223v-5.582l-19.473-9.7383c-10.273-5.1328-16.656-15.461-16.656-26.945 0-9.6055 4.5469-18.547 12.219-24.215 5.668 12.555 18.297 21.32 32.941 21.32v13.281c0 27.328 14.016 53.09 36.773 68.008l-9.6758 0.003906c-19.922 0-36.129-16.211-36.129-36.133zm-54.191 198.71v-18.066h36.129v12.484l-13.07 6.5352 8.0781 16.156 15.074-7.5391 37.848 9.4609 7.3555-7.3555c1.707-1.707 3.9766-2.6445 6.3867-2.6445h19.617c4.9805 0 9.0312 4.0508 9.0312 9.0312v18.066c0 4.9805-4.0508 9.0312-9.0312 9.0312h-72.258c-24.902 0-45.16-20.258-45.16-45.16zm198.71 72.258c0 4.9805-4.0508 9.0312-9.0312 9.0312h-72.258c-4.9805 0-9.0312-4.0508-9.0312-9.0312v-9.0312h9.0312c14.941 0 27.098-12.156 27.098-27.098v-18.066c0-14.941-12.156-27.098-27.098-27.098h-9.0312v-45.16c0-4.9805 4.0508-9.0312 9.0312-9.0312h72.258c4.9805 0 9.0312 4.0508 9.0312 9.0312zm63.227-27.098h-45.16v-28.414l43.812-6.9336 15.539 7.375 7.7461-16.316-12.906-6.125v-12.809h36.129v18.066c0 24.898-20.258 45.156-45.16 45.156zm45.16-81.289h-36.129v-36.129h-18.066v65l-36.129 5.7188 0.003906-52.652c0-14.941-12.156-27.098-27.098-27.098h-72.258c-14.941 0-27.098 12.156-27.098 27.098v46.211c-4.3711 1.2461-8.375 3.5859-11.676 6.8867l-0.125 0.125-24.328-6.082v-65.207h-18.062v36.129h-36.129v-18.621c0-31.262 23.336-58.168 54.285-62.59l59.941-8.5625 39.32 39.32 39.32-39.32 59.941 8.5625c30.949 4.4219 54.285 31.328 54.285 62.59z"/>
  <path d="m232.58 424.52c0 4.9883-4.0469 9.0312-9.0352 9.0312s-9.0312-4.043-9.0312-9.0312 4.043-9.0312 9.0312-9.0312 9.0352 4.043 9.0352 9.0312"/>
  <path d="m286.77 234.84v-9.0312h-90.324v9.0312c0 24.902 20.258 45.16 45.16 45.16 24.906 0 45.164-20.258 45.164-45.16zm-70.711 9.0312h51.098c-3.7266 10.516-13.773 18.066-25.551 18.066-11.773-0.003906-21.816-7.5508-25.547-18.066z"/>
  <path d="m596.07 79.484c9.6992-8.2891 15.859-20.598 15.859-34.324 0-24.902-20.258-45.16-45.16-45.16-24.902 0-45.16 20.258-45.16 45.16 0 13.727 6.1641 26.035 15.859 34.324-20.145 10.586-33.926 31.707-33.926 56v27.098h126.45v-27.098c0-24.293-13.777-45.414-33.926-56zm-56.398-34.324c0-14.941 12.156-27.098 27.098-27.098 14.941 0 27.098 12.156 27.098 27.098s-12.156 27.098-27.098 27.098c-14.941 0-27.098-12.156-27.098-27.098zm72.258 99.355h-90.324v-9.0312c0-24.902 20.258-45.16 45.16-45.16 24.902 0 45.16 20.258 45.16 45.16z"/>
  <path d="m596.07 260.13c9.6992-8.2891 15.859-20.594 15.859-34.324 0-24.902-20.258-45.16-45.16-45.16-24.902 0-45.16 20.258-45.16 45.16 0 13.727 6.1641 26.035 15.859 34.324-20.145 10.586-33.926 31.707-33.926 56v27.098h126.45v-27.098c0-24.293-13.777-45.414-33.926-56zm-56.398-34.324c0-14.941 12.156-27.098 27.098-27.098 14.941 0 27.098 12.156 27.098 27.098 0 14.941-12.156 27.098-27.098 27.098-14.941 0-27.098-12.156-27.098-27.098zm72.258 99.355h-90.324v-9.0312c0-24.902 20.258-45.16 45.16-45.16 24.902 0 45.16 20.258 45.16 45.16z"/>
  <path d="m596.07 440.77c9.6992-8.2891 15.859-20.594 15.859-34.32 0-24.902-20.258-45.16-45.16-45.16-24.902 0-45.16 20.258-45.16 45.16 0 13.727 6.1641 26.035 15.859 34.324-20.145 10.582-33.926 31.703-33.926 55.996v27.098h126.45v-27.098c0-24.293-13.777-45.414-33.926-56zm-56.398-34.32c0-14.941 12.156-27.098 27.098-27.098 14.941 0 27.098 12.156 27.098 27.098s-12.156 27.098-27.098 27.098c-14.941-0.003906-27.098-12.16-27.098-27.098zm72.258 99.352h-90.324v-9.0312c0-24.902 20.258-45.16 45.16-45.16 24.902 0 45.16 20.258 45.16 45.16z"/>
  <path d="m413.23 252.9h81.289v18.066h-81.289z"/>
  <path d="m491.87 168.97-12.773-12.773-24.453 24.449h-41.418v18.066h48.902z"/>
  <path d="m413.23 325.16v18.066h41.422l33.48 33.484 12.773-12.773-38.773-38.777z"/>
  <use x="70" y="576.933594" xlink:href="#u"/>
  <use x="74.144531" y="576.933594" xlink:href="#c"/>
  <use x="76.925781" y="576.933594" xlink:href="#a"/>
  <use x="80.753906" y="576.933594" xlink:href="#f"/>
  <use x="84.566406" y="576.933594" xlink:href="#b"/>
  <use x="87.261719" y="576.933594" xlink:href="#a"/>
  <use x="91.09375" y="576.933594" xlink:href="#k"/>
  <use x="97.097656" y="576.933594" xlink:href="#j"/>
  <use x="101.140625" y="576.933594" xlink:href="#e"/>
  <use x="106.785156" y="576.933594" xlink:href="#i"/>
  <use x="110.640625" y="576.933594" xlink:href="#h"/>
  <use x="114.660156" y="576.933594" xlink:href="#g"/>
  <use x="118.007812" y="576.933594" xlink:href="#f"/>
  <use x="121.816406" y="576.933594" xlink:href="#t"/>
  <use x="123.75" y="576.933594" xlink:href="#e"/>
  <use x="127.429688" y="576.933594" xlink:href="#s"/>
  <use x="70" y="582.582031" xlink:href="#r"/>
  <use x="72.457031" y="582.582031" xlink:href="#c"/>
  <use x="75.238281" y="582.582031" xlink:href="#d"/>
  <use x="79.117188" y="582.582031" xlink:href="#q"/>
  <use x="86.964844" y="582.582031" xlink:href="#b"/>
  <use x="89.664063" y="582.582031" xlink:href="#p"/>
  <use x="93.683594" y="582.582031" xlink:href="#a"/>
  <use x="99.476562" y="582.582031" xlink:href="#o"/>
  <use x="104.203125" y="582.582031" xlink:href="#d"/>
  <use x="108.078125" y="582.582031" xlink:href="#h"/>
  <use x="112.097656" y="582.582031" xlink:href="#n"/>
  <use x="118.082031" y="582.582031" xlink:href="#m"/>
  <use x="122.21875" y="582.582031" xlink:href="#c"/>
  <use x="125.003906" y="582.582031" xlink:href="#d"/>
  <use x="128.882812" y="582.582031" xlink:href="#l"/>
  <use x="130.816406" y="582.582031" xlink:href="#a"/>
  <use x="134.644531" y="582.582031" xlink:href="#g"/>
  <use x="137.992188" y="582.582031" xlink:href="#b"/>
 </g>
</svg>
